# xmcd
#
# Track frame offsets: 
#        150
#        3345
#        4330
#        23468
#        36367
#        51904
#        64397
#        74970
#        86156
#        96793
#        106403
#        117790
#        135462
#        145154
#        162908
#        177381
#        193235
#        205509
#        215739
#        228900
#        247276
#        260949
#        261875
#
# Disc length: 3578 seconds
#
# Revision: 0
# Processed by: cddbd v1.5.2PL0 Copyright (c) Steve Scherf et al.
# Submitted via: ExactAudioCopy v0.99pb4
#
DISCID=5f0df817
DTITLE=Kapela "NET" - REZERWA godzina 5:30
DYEAR=2000
DGENRE=Folklore
TTITLE0=Pobudka-sygnal
TTITLE1=Na kompani pobudka
TTITLE2=Godzina 5:30
TTITLE3=Stary rocznik do domu wedruje
TTITLE4=Dzisiaj rezerwa w szeregi staje
TTITLE5=Rekrucie masz karabin moj
TTITLE6=Porucznik Morus
TTITLE7=Przyszedl nam rozkaz
TTITLE8=Nie masz nad zolnierza
TTITLE9=Przyszedl czas
TTITLE10=Bo w piechocie fajno jest
TTITLE11=Kalina malina
TTITLE12=Wyszla raz Haneczka
TTITLE13=Piosenka dla "Dziadka"
TTITLE14=Gdy ruszyl na wojenke
TTITLE15=Marianka
TTITLE16=Gdy wroce z wojska
TTITLE17=Wrocilem z woja
TTITLE18=Czerwone berety
TTITLE19=Po cwiczeniach
TTITLE20=VI pomorska
TTITLE21=Na kompanii capstrzyk
TTITLE22=Capstrzyk-sygnal
EXTD=
EXTT0=
EXTT1=
EXTT2=
EXTT3=
EXTT4=
EXTT5=
EXTT6=
EXTT7=
EXTT8=
EXTT9=
EXTT10=
EXTT11=
EXTT12=
EXTT13=
EXTT14=
EXTT15=
EXTT16=
EXTT17=
EXTT18=
EXTT19=
EXTT20=
EXTT21=
EXTT22=
PLAYORDER=
